<svg width="25" height="24" viewBox="0 0 25 24" fill="none" xmlns="http://www.w3.org/2000/svg">
<path d="M24 3.90955V20.821C24 21.0419 23.8209 21.221 23.6 21.221H15.8727C15.7098 21.221 15.5647 21.3213 15.4757 21.4578C15.066 22.0864 13.9686 23 12.6825 23M22.1746 1.39715V18.2183C22.1746 18.4675 21.9493 18.6557 21.7019 18.6255C18.9255 18.286 15.7172 19.2062 13.9839 19.8966C13.7134 20.0043 13.4127 19.8083 13.4127 19.5171V3.39803C13.4127 3.2667 13.4768 3.14322 13.5865 3.07106C16.2977 1.28828 19.9649 0.948399 21.803 1.00589C22.0129 1.01245 22.1746 1.18716 22.1746 1.39715Z" stroke="#F9DD94" stroke-linecap="round" stroke-linejoin="round"/>
<path d="M0.999955 3.9092V20.8186C0.999955 21.0395 1.17904 21.2186 1.39996 21.2186H9.12721C9.29015 21.2186 9.43597 21.319 9.53387 21.4492C10.0068 22.0784 11.3922 23 12.6825 23M2.82535 1.39715V18.2161C2.82535 18.4653 3.0506 18.6536 3.29797 18.6234C6.07443 18.2839 9.28275 19.204 11.016 19.8943C11.2865 20.002 11.5873 19.806 11.5873 19.5149V3.39778C11.5873 3.26644 11.5231 3.14296 11.4134 3.0708C8.70219 1.28824 5.035 0.948406 3.19693 1.00589C2.98705 1.01245 2.82535 1.18716 2.82535 1.39715Z" stroke="#F9DD94" stroke-linecap="round" stroke-linejoin="round"/>
</svg>
